<svg xmlns="http://www.w3.org/2000/svg" width="50.938" height="50.938" viewBox="0 0 50.938 50.938">
  <g id="svgexport-6_-_2022-10-31T182549.378" data-name="svgexport-6 - 2022-10-31T182549.378" transform="translate(-2 -2)">
    <g id="Ecommerce-transfer_money-buy-smartphone-hands" data-name="Ecommerce-transfer money-buy-smartphone-hands" transform="translate(2 2)">
      <rect id="Rectangle_19873" data-name="Rectangle 19873" width="23.259" height="39.174" rx="2" transform="translate(6.121 1.224)" fill="#46f8ff"/>
      <path id="Path_72793" data-name="Path 72793" d="M36.094,25.979V11.547a2.547,2.547,0,1,1,5.094,0V28.526a2.547,2.547,0,0,1,5.094,0v.849a2.541,2.541,0,0,1,.747-1.8,2.409,2.409,0,0,1,.951-.594,2.353,2.353,0,0,1,.849-.153,2.547,2.547,0,0,1,2.547,2.547v.849a2.547,2.547,0,1,1,5.094,0v3.362a5.132,5.132,0,0,1-.3,1.715L52.224,46.355H35.245l-1.214-3.4L31.3,35.3a5.132,5.132,0,0,1-.3-1.715V25.971a2.54,2.54,0,0,1,2.538-2.538,2.576,2.576,0,0,1,1.808.747,2.541,2.541,0,0,1,.747,1.8Z" transform="translate(-6.38 -3.057)" fill="#ffc477"/>
      <path id="Path_72794" data-name="Path 72794" d="M59.792,33.547v3.362a5.132,5.132,0,0,1-.3,1.715L55.547,49.677H53l3.948-11.054a5.132,5.132,0,0,0,.3-1.715V33.547a2.541,2.541,0,0,0-.747-1.8,2.8,2.8,0,0,0-.526-.407,2.549,2.549,0,0,1,3.82,2.207Z" transform="translate(-9.702 -6.38)" fill="#ffa733"/>
      <path id="Path_72795" data-name="Path 72795" d="M51,53h4.245v6.792H51Z" transform="translate(-9.4 -9.702)" fill="#57a4ff"/>
      <path id="Path_72796" data-name="Path 72796" d="M46,53h4.245v6.792H46Z" transform="translate(-8.645 -9.702)" fill="#2488ff"/>
      <path id="Path_72797" data-name="Path 72797" d="M41,53h4.245v6.792H41Z" transform="translate(-7.89 -9.702)" fill="#57a4ff"/>
      <path id="Path_72798" data-name="Path 72798" d="M36,53h4.245v6.792H36Z" transform="translate(-7.135 -9.702)" fill="#2488ff"/>
      <path id="Path_72799" data-name="Path 72799" d="M26.941,45.526,23.375,50.62H4.7L3,32.792V29.4A3.4,3.4,0,0,1,6.4,26h5.943a3.4,3.4,0,0,1,0,6.792H8.094V43.828a1.7,1.7,0,0,0,1.7,1.7Z" transform="translate(-2.151 -5.625)" fill="#ffc477"/>
      <circle id="Ellipse_7785" data-name="Ellipse 7785" cx="7.957" cy="7.957" r="7.957" transform="translate(9.793 3.673)" fill="#ffcd00"/>
      <path id="Path_72800" data-name="Path 72800" d="M30.339,14.641A7.641,7.641,0,0,1,22.7,22.282a7.943,7.943,0,0,1-1.7-.187A7.646,7.646,0,0,0,21,7.187,7.943,7.943,0,0,1,22.7,7a7.641,7.641,0,0,1,7.641,7.641Z" transform="translate(-4.869 -2.755)" fill="#ddb200"/>
      <path id="Path_72801" data-name="Path 72801" d="M5,55H23.677v5.094H5Z" transform="translate(-2.453 -10.004)" fill="#2488ff"/>
      <path id="Path_72802" data-name="Path 72802" d="M42.32,11.547V28.526H39.773V11.547A2.547,2.547,0,0,0,38.5,9.339a2.547,2.547,0,0,1,3.82,2.207Z" transform="translate(-7.512 -3.057)" fill="#ffa733"/>
      <path id="Path_72803" data-name="Path 72803" d="M54.89,13.085l1.2,1.2,3.4-3.4a.849.849,0,0,0,0-1.2l-3.4-3.4-1.2,1.2L56.836,9.44H47v1.7h9.836Z" transform="translate(-8.796 -2.648)"/>
      <path id="Path_72804" data-name="Path 72804" d="M49.645,22.285l1.2-1.2L48.9,19.138h9.836v-1.7H48.9l1.947-1.947-1.2-1.2-3.4,3.4a.849.849,0,0,0,0,1.2Z" transform="translate(-8.645 -3.857)"/>
      <path id="Path_72805" data-name="Path 72805" d="M51.945,26.765a3.378,3.378,0,0,0-4.593-.178,3.367,3.367,0,0,0-2.9-1.664,3.022,3.022,0,0,0-1.112.2,3.259,3.259,0,0,0-1.07.628,3.4,3.4,0,0,0-2.912-1.672,3.356,3.356,0,0,0-1.7.467V10.49a3.4,3.4,0,0,0-3.4-3.4,3.356,3.356,0,0,0-1.7.467V4.547A2.555,2.555,0,0,0,30.016,2H9.641A2.555,2.555,0,0,0,7.094,4.547V21.526H6.245A4.245,4.245,0,0,0,2,25.771v3.472L3.7,47.038V52.09a.849.849,0,0,0,.849.849H23.224a.849.849,0,0,0,.849-.849V47.267l3.158-4.517h1.825l.959,2.691V52.09a.849.849,0,0,0,.849.849H47.845a.849.849,0,0,0,.849-.849V45.442l3.9-10.918a5.943,5.943,0,0,0,.348-2V29.167A3.4,3.4,0,0,0,51.945,26.765ZM22.375,51.241H5.4v-3.4H22.375Zm.408-5.094H5.319L3.7,29.167v-3.4a2.555,2.555,0,0,1,2.547-2.547h5.943a2.547,2.547,0,0,1,0,5.094H7.943a.849.849,0,0,0-.849.849V40.2a2.555,2.555,0,0,0,2.547,2.547H25.16ZM9.641,41.053a.849.849,0,0,1-.849-.849V37.657H24.073v-1.7H8.792V30.016h3.4a4.245,4.245,0,0,0,0-8.49h-3.4V4.547A.849.849,0,0,1,9.641,3.7H30.016a.849.849,0,0,1,.849.849V22a3.334,3.334,0,0,0-1.706-.475,3.4,3.4,0,0,0-3.387,3.387v7.615a6.028,6.028,0,0,0,.348,2l2.326,6.52Zm24.62,10.188H31.714V46.147h2.547Zm4.245,0H35.959V46.147h2.547Zm4.245,0H40.2V46.147h2.547Zm4.245,0H44.449V46.147H47Zm4.245-18.711a4.307,4.307,0,0,1-.246,1.426L47.25,44.449H31.459L27.715,33.964a4.394,4.394,0,0,1-.246-1.435V24.914a1.7,1.7,0,0,1,3.4.008v6.792h1.7V10.49a1.7,1.7,0,0,1,3.4,0V31.714h1.7V27.469a1.7,1.7,0,1,1,3.4,0v4.245h1.7v-3.4a1.684,1.684,0,0,1,.5-1.2,1.528,1.528,0,0,1,.654-.408,1.586,1.586,0,0,1,.543-.093,1.7,1.7,0,0,1,1.7,1.7v4.245h1.7v-3.4a1.7,1.7,0,1,1,3.4,0Z" transform="translate(-2 -2)"/>
      <path id="Path_72806" data-name="Path 72806" d="M21.49,6a8.49,8.49,0,1,0,8.49,8.49A8.49,8.49,0,0,0,21.49,6Zm0,15.282a6.792,6.792,0,1,1,6.792-6.792A6.792,6.792,0,0,1,21.49,21.282Z" transform="translate(-3.661 -2.604)"/>
      <path id="Path_72807" data-name="Path 72807" d="M25.094,16.792a2.555,2.555,0,0,1-1.7,2.394v1H21.7v-1A2.555,2.555,0,0,1,20,16.792h1.7a.849.849,0,1,0,.849-.849A2.547,2.547,0,0,1,21.7,11V10h1.7v1a2.555,2.555,0,0,1,1.7,2.394H23.4a.849.849,0,1,0-.849.849A2.555,2.555,0,0,1,25.094,16.792Z" transform="translate(-4.718 -3.208)"/>
    </g>
  </g>
</svg>
