<svg id="svgexport-6_-_2022-10-31T190614.978" data-name="svgexport-6 - 2022-10-31T190614.978" xmlns="http://www.w3.org/2000/svg" width="49.97" height="49.97" viewBox="0 0 49.97 49.97">
  <path id="Path_72828" data-name="Path 72828" d="M212.3,143.722l-7.583,7.583a1.573,1.573,0,0,1-1.025.41,1.589,1.589,0,0,1-1.054-.41,1.5,1.5,0,0,1,0-2.079l7.583-7.583a1.47,1.47,0,1,1,2.079,2.079Zm0,0" transform="translate(-182.489 -127.443)" fill="#465a61"/>
  <path id="Path_72829" data-name="Path 72829" d="M260.831,143.722,256,148.553V144.4l2.752-2.752a1.47,1.47,0,0,1,2.079,2.079Zm0,0" transform="translate(-231.015 -127.443)" fill="#3b4a51"/>
  <path id="Path_72830" data-name="Path 72830" d="M95.766,199.58a1.465,1.465,0,0,1-.653-.154l-6.473-3.237a1.464,1.464,0,1,1,1.31-2.619l6.473,3.237a1.464,1.464,0,0,1-.656,2.773Zm0,0" transform="translate(-79.258 -174.538)" fill="#465a61"/>
  <path id="Path_72831" data-name="Path 72831" d="M326.456,56.19a1.464,1.464,0,0,1-.879-2.635l7.028-5.269a1.463,1.463,0,1,1,1.756,2.342L327.332,55.9A1.454,1.454,0,0,1,326.456,56.19Zm0,0" transform="translate(-293.272 -43.308)" fill="#3b4a51"/>
  <path id="Path_72832" data-name="Path 72832" d="M35.392,150a4.392,4.392,0,1,0,4.392,4.392A4.386,4.386,0,0,0,35.392,150Zm0,0" transform="translate(-27.974 -135.36)" fill="#697c86"/>
  <path id="Path_72833" data-name="Path 72833" d="M155.392,210a4.392,4.392,0,1,0,4.392,4.392A4.386,4.386,0,0,0,155.392,210Zm0,0" transform="translate(-136.263 -189.505)" fill="#c6e2e7"/>
  <path id="Path_72834" data-name="Path 72834" d="M275.392,90a4.392,4.392,0,1,0,4.392,4.392A4.386,4.386,0,0,0,275.392,90Zm0,0" transform="translate(-244.551 -81.216)" fill="#fdbf00"/>
  <path id="Path_72835" data-name="Path 72835" d="M395.392,0a4.392,4.392,0,1,0,4.392,4.392A4.386,4.386,0,0,0,395.392,0Zm0,0" transform="translate(-352.84)" fill="#e63950"/>
  <path id="Path_72836" data-name="Path 72836" d="M399.784,151.464v31.758H391V151.464A1.449,1.449,0,0,1,392.464,150h5.856A1.449,1.449,0,0,1,399.784,151.464Zm0,0" transform="translate(-352.84 -135.36)" fill="#e63950"/>
  <path id="Path_72837" data-name="Path 72837" d="M279.784,241.464v22.974H271V241.464A1.449,1.449,0,0,1,272.464,240h5.856A1.449,1.449,0,0,1,279.784,241.464Zm0,0" transform="translate(-244.551 -216.577)" fill="#fdbf00"/>
  <path id="Path_72838" data-name="Path 72838" d="M159.784,361.464v11.262H151V361.464A1.45,1.45,0,0,1,152.464,360h5.856A1.45,1.45,0,0,1,159.784,361.464Zm0,0" transform="translate(-136.263 -324.865)" fill="#c6e2e7"/>
  <path id="Path_72839" data-name="Path 72839" d="M39.784,301.464v17.118H31V301.464A1.449,1.449,0,0,1,32.464,300H38.32A1.449,1.449,0,0,1,39.784,301.464Zm0,0" transform="translate(-27.974 -270.721)" fill="#697c86"/>
  <path id="Path_72840" data-name="Path 72840" d="M436,8.784V0a4.392,4.392,0,0,1,0,8.784Zm0,0" transform="translate(-393.448)" fill="#cc2e43"/>
  <path id="Path_72841" data-name="Path 72841" d="M440.392,151.464v31.758H436V150h2.928A1.449,1.449,0,0,1,440.392,151.464Zm0,0" transform="translate(-393.448 -135.36)" fill="#cc2e43"/>
  <path id="Path_72842" data-name="Path 72842" d="M316,98.784V90a4.392,4.392,0,0,1,0,8.784Zm0,0" transform="translate(-285.159 -81.216)" fill="#ff9f00"/>
  <path id="Path_72843" data-name="Path 72843" d="M320.392,241.464v22.974H316V240h2.928A1.449,1.449,0,0,1,320.392,241.464Zm0,0" transform="translate(-285.159 -216.577)" fill="#ff9f00"/>
  <path id="Path_72844" data-name="Path 72844" d="M196,218.784V210a4.392,4.392,0,0,1,0,8.784Zm0,0" transform="translate(-176.871 -189.505)" fill="#a8d3d8"/>
  <path id="Path_72845" data-name="Path 72845" d="M200.392,361.464v11.262H196V360h2.928A1.449,1.449,0,0,1,200.392,361.464Zm0,0" transform="translate(-176.871 -324.865)" fill="#a8d3d8"/>
  <path id="Path_72846" data-name="Path 72846" d="M76,158.784V150a4.392,4.392,0,0,1,0,8.784Zm0,0" transform="translate(-68.583 -135.36)" fill="#596c76"/>
  <path id="Path_72847" data-name="Path 72847" d="M80.392,301.464v17.118H76V300h2.928A1.449,1.449,0,0,1,80.392,301.464Zm0,0" transform="translate(-68.583 -270.721)" fill="#596c76"/>
  <path id="Path_72848" data-name="Path 72848" d="M49.97,483.464a1.45,1.45,0,0,1-1.464,1.464H1.464a1.464,1.464,0,1,1,0-2.928H48.506A1.45,1.45,0,0,1,49.97,483.464Zm0,0" transform="translate(0 -434.958)" fill="#465a61"/>
  <path id="Path_72849" data-name="Path 72849" d="M280.985,483.464a1.45,1.45,0,0,1-1.464,1.464H256V482h23.521A1.45,1.45,0,0,1,280.985,483.464Zm0,0" transform="translate(-231.015 -434.958)" fill="#3b4a51"/>
</svg>
